<svg width="628" height="195" viewBox="0 0 628 195" fill="none" xmlns="http://www.w3.org/2000/svg">
<path d="M77.2 2.47322C66.1333 7.53988 63.0667 12.3399 36 67.2732C1.2 137.807 0 140.607 0 153.94C0 167.14 3.73333 175.14 14.1333 184.473C31.8667 200.473 57.8667 197.14 81.0667 175.807L90 167.673L98.9333 175.807C122.667 197.54 148.267 200.473 166.8 183.673C178 173.407 182.933 157.273 179.467 143.14C176.133 129.94 123.333 22.0732 115.2 11.6732C106.8 1.13988 89.4667 -3.12678 77.2 2.47322ZM101.6 14.4732C103.2 15.2732 106 17.9399 107.867 20.3399C114.8 29.5399 164.4 132.073 168.133 144.873C170 151.14 170.133 153.54 168.8 159.407C165.333 174.473 154.667 183.14 139.333 183.273C128 183.273 118.133 178.473 106.267 167.407L97.6 159.14L104 150.473C116.933 132.873 124.667 111.807 122.533 99.4065C118.267 73.4065 86.4 63.0065 66.9333 81.1399C52.1333 94.7399 54.4 117.673 73.3333 145.94C83.3333 160.74 83.3333 160.473 71.0667 170.473C60.8 178.873 52 182.873 42.6667 183.54C35.8667 184.073 33.6 183.673 27.3333 180.34C22.5333 177.94 18.6667 174.607 16 170.873C12.4 165.54 12 164.073 12 154.207C12 143.407 12.1333 143.14 22.5333 120.607C39.8667 83.8065 70.9333 22.4732 74.2667 19.0065C81.6 11.1399 92.2667 9.40655 101.6 14.4732ZM100 85.2732C108.267 89.2732 111.867 96.4732 110.933 107.14C110.533 111.54 108.933 118.207 107.333 121.94C104.267 129.007 91.6 149.273 90.1333 149.273C89.7333 149.273 86.8 145.54 83.7333 140.873C68.2667 117.807 64.8 100.873 73.6 90.4732C80.4 82.4732 90.2667 80.6065 100 85.2732Z" fill="white"/>
<path d="M310 39.6732C302 47.6732 306.8 59.9399 318 59.9399C333.067 59.9399 334 38.7399 319.067 36.3399C314.8 35.6732 313.6 36.2065 310 39.6732Z" fill="white"/>
<path d="M391.6 90.2065L392 144.607H400C406.933 144.607 408.133 144.207 409.467 141.54C410.8 139.007 411.2 138.873 412.533 140.473C415.733 144.34 425.6 147.007 433.333 146.207C458.267 143.673 473.733 115.94 463.333 92.4732C454.667 72.7399 429.333 63.6732 413.733 74.7399L410 77.4065V56.7399V35.9399H400.667H391.333L391.6 90.2065ZM440.533 90.4732C452.667 99.1399 451.2 120.34 438 126.873C431.2 130.34 420.8 129.94 415.2 126.207L410.667 123.14L410.267 108.34L409.867 93.5399L413.6 90.8732C419.2 87.0065 420.667 86.6065 428.8 87.0065C434 87.2732 437.467 88.3399 440.533 90.4732Z" fill="white"/>
<path d="M553.733 67.5399C553.467 85.0066 553.467 109.673 553.733 122.34L554 145.407L561.6 145.007C568 144.607 569.467 144.073 570.8 141.54C572.133 139.007 572.533 138.873 573.867 140.473C574.8 141.54 578.267 143.54 581.467 144.74C598.133 151.14 621.067 138.873 626.267 120.873C630.133 107.007 626.667 91.0066 617.6 81.5399C606.267 69.6733 586.667 66.6066 575.067 74.7399L571.333 77.4066V56.7399V35.9399H562.667H554.133L553.733 67.5399ZM602.4 91.0066C605.067 93.0066 607.867 96.7399 608.667 99.4066C610.8 105.807 609.733 116.607 606.4 121.007C600.267 129.407 585.2 132.073 576.533 126.207L572 123.14L571.6 108.34L571.2 93.5399L574.933 90.8733C580.533 87.0066 582 86.6066 590.267 87.0066C596 87.2733 598.8 88.3399 602.4 91.0066Z" fill="white"/>
<path d="M252.533 70.6065C233.733 73.8065 222.133 88.0732 222 108.073C222 116.74 222.533 119.407 226.133 126.473C232.133 138.34 242 145.007 255.333 146.207C263.867 147.007 271.2 145.14 274.667 141.273C277.067 138.607 277.067 138.607 278.533 141.54C279.867 144.207 281.333 144.607 288.4 145.007L296.667 145.407V108.607V71.9399H288.133C280.667 71.9399 279.333 72.3399 278.667 74.6065C277.867 77.2732 277.733 77.2732 274.533 74.7399C272.667 73.2732 269.333 71.6732 266.933 71.2732C264.533 70.7399 261.733 70.2065 260.667 70.0732C259.6 69.8065 255.867 70.0732 252.533 70.6065ZM273.733 90.2065C277.2 92.8732 277.333 93.2732 277.733 108.34L278.133 123.673L273.067 126.74C267.067 130.473 256.8 130.74 250.4 127.54C235.2 119.673 236.133 95.5399 252 88.4732C257.6 85.8065 269.2 86.7399 273.733 90.2065Z" fill="white"/>
<path d="M370 70.8732C367.467 71.5399 363.867 73.2732 361.867 74.7399C358.267 77.2732 358.133 77.2732 357.333 74.6065C356.667 72.3399 355.333 71.9399 347.867 71.9399H339.333V108.607V145.273H348.667H358V118.74V92.2065L361.733 89.8065C364 88.2065 368.533 87.1399 374.4 86.8732L383.333 86.3399V78.4732C383.333 73.1399 382.8 70.6065 381.733 70.6065C380.8 70.6065 378.8 70.3399 377.333 70.0732C375.867 69.6732 372.533 70.0732 370 70.8732Z" fill="white"/>
<path d="M507.2 70.6065C504.533 71.0065 500.267 72.7399 497.6 74.2065C493.067 77.0065 492.933 77.0065 492.267 74.4732C491.733 72.3399 490.4 71.9399 483.467 71.9399H475.333V108.607V145.273H484.667H494V118.74V92.2065L498.933 89.1399C506 84.7399 515.733 85.0065 520.533 89.8065L524 93.2732L524.4 119.273L524.8 145.273H533.467H542V118.873C542 104.473 541.333 90.4732 540.667 87.6732C539.2 82.7399 530.933 74.0732 525.6 72.0732C520.667 70.2065 512.267 69.5399 507.2 70.6065Z" fill="white"/>
<path d="M308.667 108.607V145.273H318H327.333V108.607V71.9399H318H308.667V108.607Z" fill="white"/>
</svg>
