<svg width="99" height="55" viewBox="0 0 99 55" fill="none" xmlns="http://www.w3.org/2000/svg">
<path fill-rule="evenodd" clip-rule="evenodd" d="M7.42342 38.1162C7.42342 37.0051 7.50188 36.0639 7.65911 35.2924C7.81619 34.5208 8.12063 33.7852 8.57228 33.0856C9.02393 32.386 9.65239 31.8357 10.4575 31.4346C11.2628 31.0333 12.3285 30.7196 13.6541 30.4931C14.9798 30.2669 15.1259 30.1537 16.9915 30.1537V22.7158C14.1833 22.7158 13.438 22.9114 11.8573 23.3022C10.2762 23.6932 8.79811 24.4236 7.42342 25.4934V23.2714H0V53.3006H7.42342V38.1162Z" fill="white"/>
<path fill-rule="evenodd" clip-rule="evenodd" d="M71.0926 20.2437L47.5393 8.50795L23.9859 20.2437L20.4749 13.4853L47.5393 0L74.6038 13.4853L71.0926 20.2437Z" fill="white"/>
<path fill-rule="evenodd" clip-rule="evenodd" d="M32.484 22.7158C35.3587 22.7158 37.9564 23.4561 40.2766 24.9357C42.5967 26.4154 44.3937 28.3762 45.6667 30.8189C46.9396 33.26 47.5762 35.9293 47.5762 38.8261C47.5762 39.735 47.5146 40.5811 47.3915 41.3631H24.5376C24.9894 43.3085 25.9491 44.8624 27.4174 46.025C28.8856 47.1875 30.7077 47.7691 32.8845 47.7691C34.322 47.7691 35.6974 47.4837 37.0118 46.9128C38.326 46.3421 39.4041 45.4858 40.2458 44.3441L45.5435 48.6888C44.1882 50.6551 42.3917 52.198 40.1533 53.319C37.9151 54.4398 35.5126 54.9997 32.9461 54.9997C29.9892 54.9997 27.289 54.3021 24.8456 52.9066C22.4023 51.5114 20.4821 49.5877 19.0859 47.1349C17.6898 44.6822 16.9915 41.9766 16.9915 39.0164C16.9915 36.8391 17.3558 34.7613 18.0849 32.7852C18.8139 30.8081 19.8351 29.0738 21.1495 27.5843C22.4639 26.0929 24.1011 24.9094 26.0622 24.0324C28.0234 23.1543 30.164 22.7158 32.484 22.7158ZM32.4224 29.9781C30.636 29.9781 29.0653 30.48 27.71 31.484C26.3548 32.4888 25.3899 33.8263 24.8147 35.4962H39.753C39.5272 33.9313 38.7158 32.6212 37.3198 31.5638C35.9236 30.5063 34.2912 29.9781 32.4224 29.9781Z" fill="white"/>
<path fill-rule="evenodd" clip-rule="evenodd" d="M49.2754 23.2714H56.8455V25.4934C57.5867 24.9177 58.2124 24.4697 58.7231 24.1504C59.2338 23.8322 60.0199 23.513 61.0812 23.1946C62.1425 22.8755 63.2944 22.7158 64.5359 22.7158C66.1783 22.7158 67.7 22.9733 69.1021 23.4875C70.5041 24.0015 71.7657 24.7731 72.8871 25.8022C74.0085 26.8311 74.8848 28.2147 75.5156 29.9527C76.1464 31.6915 76.4618 33.7029 76.4618 35.9868V53.3006H68.8917V37.2521C68.8917 32.5196 66.879 30.1537 62.8536 30.1537C58.8483 30.1537 56.8455 32.4789 56.8455 37.1287V53.3006H49.2754V23.2714Z" fill="white"/>
<path fill-rule="evenodd" clip-rule="evenodd" d="M78.2065 23.7865H83.0938V16.0596H91.0595V23.7865H98.3899V31.3402H91.0595V43.4824C91.0595 46.2087 92.2124 47.5713 94.5188 47.5713C95.1113 47.5713 95.7301 47.5454 96.3753 47.4939C97.0204 47.4412 97.5232 47.3948 97.8827 47.353L98.3899 47.2592V54.22C96.8244 54.7399 94.7939 55.0002 92.2337 55.0002C89.2927 55.0002 87.0345 54.1156 85.4582 52.347C83.8817 50.5786 83.0938 48.1752 83.0938 45.1367V31.3402H78.2065V23.7865Z" fill="white"/>
<circle cx="87.0717" cy="10.0793" r="4.00748" fill="white"/>
</svg>
